<?xml version="1.0" encoding="utf-8"?>
<svg xmlns="http://www.w3.org/2000/svg" height="512pt" version="1.1" viewBox="0 0 512 512" width="512pt">
<path d="M 0.00 0.00 L 512.00 0.00 L 512.00 512.00 L 470.17 512.00 C 465.91 499.34 463.31 486.20 461.14 473.05 C 461.00 471.16 460.15 469.06 461.15 467.30 C 463.54 462.78 467.71 458.54 467.06 453.03 C 466.10 446.75 463.75 440.72 463.57 434.31 C 469.19 434.81 473.09 430.31 476.89 426.92 C 480.59 423.23 484.75 419.25 485.49 413.81 C 482.20 417.82 477.80 422.43 472.10 421.69 C 467.01 418.82 465.04 412.45 464.69 406.94 C 464.34 393.40 467.10 380.02 470.46 366.97 C 473.05 354.89 476.42 342.33 473.53 329.99 C 471.31 319.30 465.15 309.40 455.95 303.37 C 447.97 297.87 439.89 292.50 431.88 287.05 C 427.61 284.07 424.14 280.15 420.29 276.70 C 414.66 271.33 408.38 266.63 403.41 260.61 C 400.57 257.15 397.73 253.69 394.79 250.31 C 394.18 248.18 393.54 246.05 393.05 243.88 C 390.39 228.17 389.07 211.70 381.44 197.41 C 379.32 193.10 375.79 189.80 373.04 185.95 C 370.58 180.47 369.92 174.42 368.12 168.73 C 367.25 165.42 365.63 162.37 364.79 159.07 C 364.27 154.79 364.65 150.45 363.96 146.19 C 362.57 137.34 359.21 128.98 356.16 120.60 C 352.47 110.78 351.51 100.15 347.54 90.42 C 342.74 78.47 336.80 66.59 327.44 57.53 C 317.08 47.26 303.85 39.04 289.09 37.54 C 281.30 36.90 273.23 37.15 265.85 39.97 C 262.32 41.52 258.64 39.61 255.03 39.48 C 246.75 38.59 238.64 41.48 231.53 45.51 C 223.06 50.32 213.93 54.91 208.11 63.03 C 200.97 73.11 195.25 84.33 192.17 96.34 C 186.48 119.31 183.30 143.96 190.18 167.04 C 190.92 170.86 189.01 174.49 187.89 178.05 C 185.20 185.56 183.85 193.45 182.02 201.20 C 180.63 207.74 178.33 214.35 179.37 221.13 C 179.67 224.36 181.22 227.67 179.77 230.83 C 176.91 238.24 174.60 246.01 174.61 254.02 C 174.61 258.39 175.72 262.67 175.72 267.04 C 174.41 271.03 171.80 274.44 170.14 278.29 C 167.13 284.00 164.92 290.60 159.58 294.62 C 148.78 302.88 136.10 308.04 124.00 314.03 C 118.22 316.89 112.90 320.81 108.85 325.88 C 103.77 332.02 100.91 339.60 98.52 347.11 C 96.63 353.39 95.67 360.20 97.15 366.67 C 100.57 379.13 110.89 388.08 115.24 400.10 C 117.49 405.12 114.89 410.46 113.63 415.38 C 108.27 431.76 103.22 448.24 98.36 464.78 C 97.76 467.42 97.20 470.23 97.86 472.92 C 99.29 475.85 101.67 478.16 103.56 480.78 C 101.28 491.30 98.35 501.67 95.36 512.00 L 0.00 512.00 L 0.00 0.00 Z" fill="#a79e8e" opacity="1.00" stroke="#a79e8e" stroke-width="0.25"/>
<path d="M 265.85 39.97 C 273.23 37.15 281.30 36.90 289.09 37.54 C 303.85 39.04 317.08 47.26 327.44 57.53 C 336.80 66.59 342.74 78.47 347.54 90.42 C 351.51 100.15 352.47 110.78 356.16 120.60 C 359.21 128.98 362.57 137.34 363.96 146.19 C 364.65 150.45 364.27 154.79 364.79 159.07 C 365.63 162.37 367.25 165.42 368.12 168.73 C 369.92 174.42 370.58 180.47 373.04 185.95 C 375.79 189.80 379.32 193.10 381.44 197.41 C 389.07 211.70 390.39 228.17 393.05 243.88 C 394.20 253.24 391.85 262.95 395.07 272.04 C 396.83 277.65 400.62 282.57 405.76 285.46 C 411.15 288.47 417.13 290.11 422.91 292.16 C 425.75 293.07 427.51 295.60 429.06 297.98 C 435.59 308.23 443.19 317.73 450.76 327.21 C 455.99 333.74 459.63 341.46 461.55 349.59 C 462.19 352.60 462.76 355.82 461.54 358.77 C 460.02 362.50 458.84 366.38 456.97 369.96 C 455.46 372.93 452.83 375.11 451.06 377.91 C 453.15 384.41 454.35 391.30 457.41 397.44 C 458.01 391.38 457.94 385.24 456.64 379.29 C 455.86 376.55 457.41 374.02 458.66 371.71 C 460.29 368.82 461.91 365.91 462.92 362.74 C 463.34 361.53 463.81 360.35 464.35 359.20 C 469.31 353.72 470.19 346.09 470.42 339.01 C 470.55 331.17 469.02 323.07 464.73 316.39 C 461.98 311.86 458.03 308.27 454.84 304.09 L 455.95 303.37 C 465.15 309.40 471.31 319.30 473.53 329.99 C 476.42 342.33 473.05 354.89 470.46 366.97 C 467.10 380.02 464.34 393.40 464.69 406.94 C 465.04 412.45 467.01 418.82 472.10 421.69 C 477.80 422.43 482.20 417.82 485.49 413.81 C 484.75 419.25 480.59 423.23 476.89 426.92 C 473.09 430.31 469.19 434.81 463.57 434.31 C 463.75 440.72 466.10 446.75 467.06 453.03 C 467.71 458.54 463.54 462.78 461.15 467.30 C 460.15 469.06 461.00 471.16 461.14 473.05 C 463.31 486.20 465.91 499.34 470.17 512.00 L 465.90 512.00 C 462.07 501.67 460.48 490.73 458.25 480.00 C 456.83 473.07 455.71 466.08 454.84 459.07 C 454.81 457.41 454.87 455.76 454.94 454.12 C 447.02 451.17 438.20 449.81 429.95 452.19 C 425.40 453.42 421.04 455.29 416.79 457.34 C 414.30 458.64 411.68 459.77 409.43 461.48 C 409.01 463.05 409.89 464.68 410.13 466.25 C 410.47 467.40 410.72 468.61 411.22 469.72 C 413.41 470.92 415.87 471.54 418.19 472.44 C 427.78 475.95 437.89 480.26 444.14 488.73 C 439.92 486.36 435.85 483.71 431.48 481.63 C 422.42 477.28 412.58 474.86 403.54 470.46 C 394.69 466.67 386.52 461.53 378.12 456.87 C 365.95 450.29 354.70 442.21 342.79 435.20 C 338.77 432.97 335.17 430.00 331.00 428.07 C 330.65 428.22 329.95 428.53 329.61 428.69 C 325.31 433.47 319.18 435.82 313.37 438.19 C 306.26 440.74 298.99 443.34 291.36 443.63 C 290.10 442.96 288.83 442.31 287.56 441.67 C 290.73 441.60 293.92 441.36 297.00 440.53 C 306.67 438.14 316.42 435.18 324.86 429.76 C 328.51 427.58 329.52 423.16 330.02 419.26 C 311.68 423.42 292.73 424.49 273.97 423.57 C 266.99 422.80 259.86 423.79 252.98 422.06 C 258.02 419.04 264.20 419.21 269.36 416.49 C 273.93 414.12 278.60 411.90 282.94 409.09 C 278.48 405.97 274.40 401.93 269.21 400.10 C 265.99 401.41 263.10 403.38 259.97 404.86 C 250.75 409.44 240.77 413.01 232.97 419.96 C 225.15 427.17 219.33 436.36 210.98 443.03 C 203.78 448.63 196.09 453.54 188.53 458.62 C 174.53 468.20 159.38 475.93 143.99 483.00 C 132.47 487.59 120.43 492.06 111.47 501.02 C 112.60 498.20 114.15 495.49 116.52 493.52 C 123.37 487.48 131.80 483.45 140.46 480.71 C 139.37 480.32 138.28 479.93 137.20 479.54 C 128.77 476.20 119.61 475.75 110.67 475.16 C 110.33 476.56 109.98 477.97 109.61 479.37 C 106.20 490.35 103.05 501.45 98.44 512.00 L 95.36 512.00 C 98.35 501.67 101.28 491.30 103.56 480.78 C 101.67 478.16 99.29 475.85 97.86 472.92 C 97.20 470.23 97.76 467.42 98.36 464.78 C 103.22 448.24 108.27 431.76 113.63 415.38 C 114.89 410.46 117.49 405.12 115.24 400.10 C 110.89 388.08 100.57 379.13 97.15 366.67 C 95.67 360.20 96.63 353.39 98.52 347.11 C 100.91 339.60 103.77 332.02 108.85 325.88 C 112.90 320.81 118.22 316.89 124.00 314.03 C 136.10 308.04 148.78 302.88 159.58 294.62 C 164.92 290.60 167.13 284.00 170.14 278.29 C 171.80 274.44 174.41 271.03 175.72 267.04 C 175.72 262.67 174.61 258.39 174.61 254.02 C 174.60 246.01 176.91 238.24 179.77 230.83 C 181.22 227.67 179.67 224.36 179.37 221.13 C 178.33 214.35 180.63 207.74 182.02 201.20 C 183.85 193.45 185.20 185.56 187.89 178.05 C 189.01 174.49 190.92 170.86 190.18 167.04 C 183.30 143.96 186.48 119.31 192.17 96.34 C 195.25 84.33 200.97 73.11 208.11 63.03 C 213.93 54.91 223.06 50.32 231.53 45.51 C 238.64 41.48 246.75 38.59 255.03 39.48 C 258.64 39.61 262.32 41.52 265.85 39.97 Z" fill="#000000" opacity="1.00" stroke="#000000" stroke-width="0.25"/>
<path d="M 268.10 43.22 C 278.80 40.23 290.37 41.34 300.64 45.40 C 314.90 50.75 326.54 61.40 335.48 73.51 C 340.20 80.38 343.90 88.00 346.26 96.00 C 347.08 98.61 346.83 101.37 346.61 104.05 C 345.38 101.46 342.77 100.06 340.61 98.37 C 334.68 93.87 328.90 89.13 322.49 85.31 L 322.28 85.18 C 315.24 75.35 307.55 65.20 296.53 59.56 C 284.49 54.61 269.34 55.39 259.26 64.23 C 260.03 57.99 261.62 51.85 264.05 46.05 C 264.49 44.17 266.53 43.75 268.10 43.22 Z" fill="#2e251f" opacity="1.00" stroke="#2e251f" stroke-width="0.25"/>
<path d="M 231.44 48.47 C 239.76 43.46 250.41 40.14 259.64 44.74 C 257.72 48.66 255.85 52.65 254.81 56.91 C 253.86 60.38 253.62 64.02 252.38 67.41 C 251.02 68.27 249.46 67.11 248.08 66.85 C 241.13 64.14 232.90 65.78 226.98 70.16 C 223.14 72.88 219.76 76.25 217.07 80.12 C 222.83 76.58 227.87 70.91 235.06 70.55 C 239.30 70.53 244.36 71.77 246.53 75.80 C 241.76 75.16 236.65 73.93 232.06 75.99 C 225.69 79.04 220.93 84.89 218.41 91.40 C 215.17 99.65 213.48 108.48 209.33 116.37 C 204.09 126.23 200.69 136.90 196.00 147.01 C 194.12 150.68 193.83 154.92 191.97 158.58 C 190.81 143.42 189.71 128.03 192.67 112.99 C 194.92 102.12 197.69 91.28 202.02 81.03 C 205.61 73.60 208.78 65.68 214.60 59.65 C 219.65 55.15 225.69 51.96 231.44 48.47 Z" fill="#2c241e" opacity="1.00" stroke="#2c241e" stroke-width="0.25"/>
<path d="M 261.09 67.11 C 266.11 62.39 273.18 60.19 280.01 60.47 C 287.42 60.70 295.36 61.87 301.30 66.68 C 308.41 71.98 313.16 79.60 318.20 86.74 C 325.75 97.68 334.42 107.83 344.27 116.78 C 349.40 121.12 349.94 128.11 351.96 134.09 C 353.74 140.50 356.40 146.65 357.76 153.18 C 350.53 150.30 343.29 146.88 337.52 141.55 C 329.32 134.28 321.67 126.11 316.55 116.34 C 313.42 110.60 312.58 103.99 310.02 98.01 C 306.58 88.71 299.43 80.52 290.04 76.97 C 284.35 74.85 278.17 74.12 272.13 74.69 C 269.41 74.85 266.67 75.37 263.94 75.01 C 260.50 74.56 258.27 69.61 261.09 67.11 Z" fill="#2d241f" opacity="1.00" stroke="#2d241f" stroke-width="0.25"/>
<path d="M 250.16 76.12 C 253.03 78.14 255.53 80.71 258.92 81.92 C 258.44 80.29 257.94 78.68 257.51 77.04 C 258.48 79.73 259.36 82.73 262.45 83.68 C 262.40 82.29 262.34 80.90 262.27 79.51 C 263.69 79.67 265.09 79.95 266.46 80.36 C 266.58 80.84 266.82 81.79 266.94 82.27 C 269.28 83.00 271.68 83.50 274.06 84.10 C 282.49 86.62 290.20 91.57 295.68 98.49 C 302.06 106.20 305.11 115.88 309.55 124.70 C 310.69 127.54 311.37 130.55 311.97 133.55 L 312.47 133.24 C 314.12 143.70 320.26 152.78 325.33 161.89 C 324.17 167.96 322.49 174.06 322.48 180.30 C 324.85 175.64 325.57 170.32 327.92 165.62 L 326.53 164.67 C 328.00 163.96 328.74 165.68 329.67 166.50 C 331.73 168.88 334.59 170.92 335.29 174.17 C 335.42 178.31 333.82 183.06 329.96 185.09 C 327.54 186.32 324.65 185.78 322.56 184.18 C 320.46 190.36 319.60 196.92 317.04 202.96 C 313.23 212.68 305.82 220.33 298.50 227.52 C 292.29 232.77 286.07 238.65 278.04 240.91 C 272.62 242.42 266.69 243.24 261.20 241.74 C 252.00 237.11 244.35 230.03 236.67 223.28 C 230.12 217.47 223.51 211.20 219.99 203.01 C 217.13 196.42 215.10 189.49 213.75 182.44 C 211.81 173.09 208.81 163.68 209.85 154.02 C 210.56 147.37 211.49 140.74 211.66 134.04 C 212.77 123.90 214.93 113.81 218.27 104.16 C 218.86 110.13 217.24 116.01 217.55 121.99 C 217.75 127.94 216.06 134.10 218.19 139.86 C 217.10 140.82 216.46 142.05 216.27 143.57 C 223.64 141.52 231.20 139.79 238.90 140.90 C 242.08 141.75 245.10 143.26 247.41 145.65 C 250.69 148.53 252.05 153.06 255.75 155.51 C 256.37 150.16 254.90 144.76 251.35 140.68 C 250.20 139.03 248.92 137.11 246.76 136.82 C 241.22 135.90 235.57 136.15 229.98 136.25 C 226.49 136.29 223.07 137.19 219.96 138.77 C 221.94 135.16 221.99 130.95 222.48 126.97 C 223.42 117.36 224.71 107.54 228.80 98.69 C 231.42 93.31 235.72 88.66 241.19 86.12 C 245.61 83.76 250.76 83.96 255.51 82.72 C 255.06 82.39 254.18 81.73 253.73 81.40 C 252.16 79.93 251.05 78.06 250.16 76.12 Z" fill="#fcdac7" opacity="1.00" stroke="#fcdac7" stroke-width="0.25"/>
<path d="M 228.41 86.48 C 235.05 80.17 245.18 79.30 253.73 81.40 C 254.18 81.73 255.06 82.39 255.51 82.72 C 250.76 83.96 245.61 83.76 241.19 86.12 C 235.72 88.66 231.42 93.31 228.80 98.69 C 224.71 107.54 223.42 117.36 222.48 126.97 C 221.99 130.95 221.94 135.16 219.96 138.77 C 219.52 139.04 218.64 139.59 218.19 139.86 C 216.06 134.10 217.75 127.94 217.55 121.99 C 217.24 116.01 218.86 110.13 218.27 104.16 C 220.23 97.67 222.95 90.88 228.41 86.48 Z" fill="#be8f77" opacity="1.00" stroke="#be8f77" stroke-width="0.25"/>
<path d="M 266.94 82.27 C 270.06 81.88 272.93 80.60 275.94 79.82 C 281.09 78.89 286.04 81.18 290.30 83.84 C 289.71 84.43 289.13 85.01 288.55 85.60 C 289.48 86.73 290.44 87.85 291.37 88.98 C 285.34 85.58 279.14 81.70 271.91 82.12 C 272.61 82.79 273.33 83.45 274.06 84.10 C 271.68 83.50 269.28 83.00 266.94 82.27 Z" fill="#d4ab92" opacity="1.00" stroke="#d4ab92" stroke-width="0.25"/>
<path d="M 271.91 82.12 C 279.14 81.70 285.34 85.58 291.37 88.98 C 290.44 87.85 289.48 86.73 288.55 85.60 C 289.13 85.01 289.71 84.43 290.30 83.84 C 299.26 89.85 306.52 99.11 308.10 110.00 C 308.60 114.89 309.52 119.77 309.55 124.70 C 305.11 115.88 302.06 106.20 295.68 98.49 C 290.20 91.57 282.49 86.62 274.06 84.10 C 273.33 83.45 272.61 82.79 271.91 82.12 Z" fill="#bf947e" opacity="1.00" stroke="#bf947e" stroke-width="0.25"/>
<path d="M 322.49 85.31 C 328.90 89.13 334.68 93.87 340.61 98.37 C 342.77 100.06 345.38 101.46 346.61 104.05 C 347.37 108.78 348.14 113.52 348.71 118.28 C 339.56 107.65 329.59 97.51 322.49 85.31 Z" fill="#c37d53" opacity="1.00" stroke="#c37d53" stroke-width="0.25"/>
<path d="M 314.43 124.00 C 316.82 128.33 319.26 132.67 322.36 136.56 C 328.72 144.64 334.15 153.39 340.35 161.59 C 343.41 165.75 347.72 168.89 352.70 170.33 C 359.88 172.50 367.16 176.81 369.98 184.13 C 366.95 181.47 364.28 178.39 360.90 176.15 C 353.05 170.66 342.79 169.11 335.95 162.06 C 329.80 156.43 326.99 148.37 322.42 141.58 C 318.79 136.21 315.73 130.40 314.43 124.00 Z" fill="#d79169" opacity="1.00" stroke="#d79169" stroke-width="0.25"/>
<path d="M 206.28 131.14 C 206.62 131.17 207.30 131.23 207.63 131.26 C 207.41 139.56 207.23 147.95 205.31 156.07 C 203.36 168.03 200.97 180.02 196.49 191.31 C 195.36 193.85 195.82 197.25 193.61 199.19 C 193.16 196.71 192.63 194.24 192.14 191.77 C 190.64 185.24 191.10 178.44 192.17 171.88 C 195.59 157.89 201.05 144.52 206.28 131.14 Z" fill="#27201b" opacity="1.00" stroke="#27201b" stroke-width="0.25"/>
<path d="M 282.36 134.25 C 291.26 130.85 301.33 130.58 310.40 133.53 C 311.39 133.99 311.85 134.77 311.81 135.88 C 309.06 137.44 305.90 136.45 302.99 136.10 C 297.98 135.20 292.87 136.11 288.08 137.62 C 286.78 138.04 285.48 138.45 284.19 138.90 L 283.30 139.25 C 282.29 139.59 280.28 140.28 279.27 140.62 C 279.54 138.29 279.82 135.25 282.36 134.25 Z" fill="#000000" opacity="1.00" stroke="#000000" stroke-width="0.25"/>
<path d="M 219.96 138.77 C 223.07 137.19 226.49 136.29 229.98 136.25 C 235.57 136.15 241.22 135.90 246.76 136.82 C 248.92 137.11 250.20 139.03 251.35 140.68 L 251.59 142.66 C 247.48 141.34 243.22 140.68 238.90 140.90 C 231.20 139.79 223.64 141.52 216.27 143.57 C 216.46 142.05 217.10 140.82 218.19 139.86 C 218.64 139.59 219.52 139.04 219.96 138.77 Z" fill="#000000" opacity="1.00" stroke="#000000" stroke-width="0.25"/>
<path d="M 284.19 138.90 C 285.48 138.45 286.78 138.04 288.08 137.62 C 288.82 141.28 288.21 145.01 288.44 148.71 C 286.99 150.17 285.78 151.84 284.60 153.52 C 284.27 153.60 283.61 153.75 283.28 153.83 C 282.85 154.63 282.43 155.43 282.01 156.24 C 280.61 155.03 279.22 153.81 277.84 152.58 C 279.74 147.91 285.40 144.47 284.19 138.90 Z" fill="#f0cdb9" opacity="1.00" stroke="#f0cdb9" stroke-width="0.25"/>
<path d="M 283.30 139.25 L 284.19 138.90 C 285.40 144.47 279.74 147.91 277.84 152.58 C 277.24 153.74 276.69 154.92 276.12 156.10 C 274.31 149.33 279.39 144.02 283.30 139.25 Z" fill="#dfbfa9" opacity="1.00" stroke="#dfbfa9" stroke-width="0.25"/>
<path d="M 238.90 140.90 C 243.22 140.68 247.48 141.34 251.59 142.66 L 251.35 140.68 C 254.90 144.76 256.37 150.16 255.75 155.51 C 252.05 153.06 250.69 148.53 247.41 145.65 C 245.10 143.26 242.08 141.75 238.90 140.90 Z" fill="#d0a792" opacity="1.00" stroke="#d0a792" stroke-width="0.25"/>
<path d="M 288.44 148.71 C 292.36 145.27 297.75 146.84 302.29 147.77 C 304.82 148.81 306.84 150.71 308.81 152.55 C 307.06 152.16 305.26 151.90 303.61 151.19 C 302.71 150.78 301.81 150.36 300.93 149.95 C 300.70 152.03 300.53 154.21 299.26 155.96 C 297.29 157.23 294.86 157.47 292.62 156.90 C 290.18 154.80 289.99 151.59 290.44 148.61 C 288.67 150.60 286.60 152.42 285.45 154.87 C 285.17 155.43 284.62 156.56 284.34 157.13 C 284.40 155.92 284.48 154.72 284.60 153.52 C 285.78 151.84 286.99 150.17 288.44 148.71 Z" fill="#000000" opacity="1.00" stroke="#000000" stroke-width="0.25"/>
<path d="M 285.45 154.87 C 286.60 152.42 288.67 150.60 290.44 148.61 C 289.99 151.59 290.18 154.80 292.62 156.90 L 293.42 157.88 C 290.83 157.15 286.66 157.77 285.45 154.87 Z" fill="#fcf7f1" opacity="1.00" stroke="#fcf7f1" stroke-width="0.25"/>
<path d="M 300.93 149.95 C 301.81 150.36 302.71 150.78 303.61 151.19 C 303.49 151.64 303.26 152.56 303.14 153.02 C 302.45 154.25 301.74 155.48 300.99 156.69 C 300.42 156.75 299.27 156.88 298.69 156.95 L 299.26 155.96 C 300.53 154.21 300.70 152.03 300.93 149.95 Z" fill="#fbfefe" opacity="1.00" stroke="#fbfefe" stroke-width="0.25"/>
<path d="M 219.97 158.91 C 222.84 155.82 226.18 153.01 230.07 151.31 C 234.30 150.21 238.78 150.62 243.10 150.77 C 245.75 152.99 246.49 156.75 247.66 159.88 C 245.92 159.14 245.19 157.31 244.17 155.86 C 243.50 157.60 243.27 160.27 241.01 160.56 C 237.72 160.98 234.40 160.43 231.11 160.27 C 228.88 160.12 227.89 157.83 227.10 156.07 C 224.66 156.87 222.33 157.93 219.97 158.91 Z" fill="#000000" opacity="1.00" stroke="#000000" stroke-width="0.25"/>
<path d="M 228.12 157.41 C 228.44 154.39 231.18 153.07 233.77 152.39 C 234.02 154.92 234.25 157.46 234.71 159.97 C 233.33 159.84 231.95 159.73 230.58 159.62 C 229.83 158.80 229.01 158.06 228.12 157.41 Z" fill="#fefefe" opacity="1.00" stroke="#fefefe" stroke-width="0.25"/>
<path d="M 303.14 153.02 C 305.51 153.56 302.84 158.02 300.99 156.69 C 301.74 155.48 302.45 154.25 303.14 153.02 Z" fill="#b29283" opacity="1.00" stroke="#b29283" stroke-width="0.25"/>
<path d="M 206.37 166.63 C 206.97 172.21 210.33 177.04 210.55 182.71 C 209.43 180.28 207.72 181.14 206.26 181.78 C 206.89 182.59 208.14 184.21 208.77 185.02 C 209.30 184.50 210.36 183.46 210.90 182.93 C 211.83 185.43 212.72 187.99 212.80 190.69 C 208.80 191.90 207.28 187.48 207.38 184.34 C 204.62 183.00 206.72 180.25 206.28 178.09 C 205.54 174.28 206.35 170.46 206.37 166.63 Z" fill="#dfcdbc" opacity="1.00" stroke="#dfcdbc" stroke-width="0.25"/>
<path d="M 326.13 179.20 C 326.64 175.69 329.33 172.75 332.17 170.80 C 332.59 171.72 333.43 173.55 333.84 174.47 C 333.15 174.59 331.75 174.83 331.05 174.95 C 329.45 176.42 327.86 177.89 326.13 179.20 Z" fill="#020000" opacity="1.00" stroke="#020000" stroke-width="0.25"/>
<path d="M 339.07 173.15 C 345.24 177.63 352.35 180.84 357.98 186.05 C 363.39 192.05 367.21 199.76 367.99 207.85 C 367.80 210.65 367.48 213.44 367.37 216.24 C 366.44 210.03 364.64 203.89 361.55 198.40 C 357.40 191.33 350.27 186.89 343.93 182.02 C 341.11 179.88 340.62 176.12 339.07 173.15 Z" fill="#c08155" opacity="1.00" stroke="#c08155" stroke-width="0.25"/>
<path d="M 370.13 187.18 C 370.82 187.30 372.19 187.55 372.87 187.67 C 376.04 192.70 379.78 197.46 381.80 203.11 C 385.98 214.22 386.40 226.27 386.54 238.00 C 386.54 242.66 386.74 247.82 383.82 251.75 C 379.56 257.24 372.99 260.45 369.08 266.26 C 367.29 268.69 366.16 271.49 365.06 274.28 C 365.08 269.35 367.86 265.12 369.69 260.71 C 374.47 251.22 378.58 240.80 377.78 229.97 C 377.67 223.37 376.01 216.95 374.78 210.50 C 373.30 202.71 371.59 194.97 370.13 187.18 Z" fill="#c58258" opacity="1.00" stroke="#c58258" stroke-width="0.25"/>
<path d="M 258.36 189.76 C 258.25 190.77 258.04 192.78 257.93 193.79 C 258.71 193.29 260.26 192.28 261.04 191.78 C 263.25 192.84 263.88 195.65 265.83 197.11 C 264.55 196.21 263.25 195.33 261.98 194.43 C 260.39 194.41 258.81 194.42 257.23 194.42 C 257.49 192.84 257.84 191.27 258.36 189.76 Z" fill="#150d0a" opacity="1.00" stroke="#150d0a" stroke-width="0.25"/>
<path d="M 187.26 202.28 C 188.82 198.75 191.19 195.57 192.14 191.77 C 192.63 194.24 193.16 196.71 193.61 199.19 C 194.13 202.14 192.45 204.84 191.42 207.49 C 188.82 213.02 186.38 218.78 182.39 223.48 C 181.28 216.02 184.35 208.95 187.26 202.28 Z" fill="#c27e58" opacity="1.00" stroke="#c27e58" stroke-width="0.25"/>
<path d="M 272.43 195.95 C 273.58 194.72 274.39 193.25 275.06 191.72 C 276.27 192.00 277.88 191.80 278.25 193.32 C 275.98 193.35 273.98 194.36 272.43 195.95 Z" fill="#2e2824" opacity="1.00" stroke="#2e2824" stroke-width="0.25"/>
<path d="M 195.70 204.90 C 196.13 203.29 196.40 201.43 198.05 200.59 C 199.15 208.75 196.21 216.80 196.80 224.97 C 196.84 230.56 198.41 235.99 198.79 241.53 C 196.67 251.26 194.39 261.17 189.89 270.12 C 188.00 263.03 187.45 255.70 186.26 248.48 C 185.18 242.48 185.60 236.35 184.56 230.34 C 184.29 229.06 185.41 228.02 185.85 226.91 C 189.51 219.76 193.84 212.79 195.70 204.90 Z" fill="#2c251f" opacity="1.00" stroke="#2c251f" stroke-width="0.25"/>
<path d="M 340.22 203.86 C 349.42 216.12 347.79 233.61 340.15 246.25 C 340.58 240.75 343.05 235.66 343.51 230.15 C 344.03 223.68 344.41 216.93 342.20 210.70 C 341.44 208.45 340.66 206.20 340.22 203.86 Z" fill="#cb8c67" opacity="1.00" stroke="#cb8c67" stroke-width="0.25"/>
<path d="M 262.22 207.88 C 265.44 205.07 270.18 205.02 274.04 206.35 C 272.89 207.39 271.89 208.71 270.44 209.32 C 267.85 209.92 265.44 208.55 263.14 207.59 L 262.22 207.88 Z" fill="#f37498" opacity="1.00" stroke="#f37498" stroke-width="0.25"/>
<path d="M 360.26 204.68 C 363.35 209.44 364.58 215.07 365.74 220.55 C 366.01 220.65 366.54 220.87 366.81 220.98 C 367.43 219.47 367.27 217.82 367.37 216.24 C 367.48 213.44 367.80 210.65 367.99 207.85 C 368.83 212.45 369.10 217.34 367.66 221.85 C 365.20 225.67 364.44 230.37 361.58 234.00 C 361.64 228.02 361.81 222.03 361.55 216.06 C 361.41 212.23 360.18 208.53 360.26 204.68 Z" fill="#cf9466" opacity="1.00" stroke="#cf9466" stroke-width="0.25"/>
<path d="M 274.04 206.35 L 274.81 205.59 C 279.13 208.34 284.58 209.48 289.42 207.40 C 289.51 207.93 289.67 208.98 289.76 209.51 C 288.28 209.68 286.85 210.05 285.43 210.41 C 282.22 210.89 278.91 210.95 275.81 209.88 C 271.84 213.25 266.37 212.75 262.01 210.45 C 259.89 211.31 256.76 211.24 256.00 213.84 C 253.63 212.70 251.08 211.54 249.76 209.12 C 251.64 209.14 253.33 209.94 255.06 210.59 C 257.72 210.89 259.94 208.95 262.22 207.88 L 263.14 207.59 C 265.44 208.55 267.85 209.92 270.44 209.32 C 271.89 208.71 272.89 207.39 274.04 206.35 Z" fill="#040202" opacity="1.00" stroke="#040202" stroke-width="0.25"/>
<path d="M 202.75 209.82 C 203.70 211.74 203.49 213.95 203.64 216.03 C 204.06 223.22 204.64 230.41 206.27 237.44 C 206.67 242.79 207.62 248.25 206.66 253.58 C 205.00 248.54 204.82 243.18 203.56 238.05 C 201.41 228.82 201.01 219.15 202.75 209.82 Z" fill="#cb8c67" opacity="1.00" stroke="#cb8c67" stroke-width="0.25"/>
<path d="M 262.01 210.45 C 266.37 212.75 271.84 213.25 275.81 209.88 C 278.91 210.95 282.22 210.89 285.43 210.41 C 284.09 213.48 282.27 216.61 279.31 218.35 C 274.28 220.35 268.80 220.66 263.45 220.31 C 263.22 219.87 262.77 218.98 262.54 218.54 L 262.31 218.35 C 260.20 216.85 258.01 215.47 256.00 213.84 C 256.76 211.24 259.89 211.31 262.01 210.45 Z" fill="#e53549" opacity="1.00" stroke="#e53549" stroke-width="0.25"/>
<path d="M 307.74 221.19 C 310.23 218.23 312.46 215.07 314.80 211.99 C 314.39 216.41 314.19 220.85 313.44 225.23 C 313.30 224.46 313.02 222.93 312.88 222.16 C 312.08 223.45 311.29 224.75 310.50 226.06 C 309.92 224.25 309.07 222.56 307.74 221.19 Z" fill="#d5a792" opacity="1.00" stroke="#d5a792" stroke-width="0.25"/>
<path d="M 262.31 218.35 L 262.54 218.54 C 262.77 218.98 263.22 219.87 263.45 220.31 C 268.80 220.66 274.28 220.35 279.31 218.35 C 278.39 218.74 277.46 219.11 276.53 219.47 C 277.71 221.92 274.75 222.28 273.12 222.62 C 269.38 223.41 265.63 222.66 262.25 221.00 C 262.25 220.11 262.27 219.23 262.31 218.35 Z" fill="#000000" opacity="1.00" stroke="#000000" stroke-width="0.25"/>
<path d="M 289.00 238.88 C 295.93 233.75 302.00 227.59 307.74 221.19 C 309.07 222.56 309.92 224.25 310.50 226.06 C 304.67 236.40 297.58 246.05 292.82 256.97 C 289.90 262.90 287.03 268.87 283.60 274.53 C 281.46 277.65 278.94 281.21 275.04 282.09 C 267.44 282.16 260.39 278.08 255.25 272.72 C 249.41 266.41 244.22 259.54 239.28 252.52 L 238.95 252.08 C 238.25 244.04 237.82 235.97 236.89 227.95 C 241.38 231.53 245.78 235.24 250.47 238.58 C 254.90 241.78 259.26 245.98 265.04 246.22 C 273.50 246.34 282.21 244.06 289.00 238.88 Z" fill="#bd8c75" opacity="1.00" stroke="#bd8c75" stroke-width="0.25"/>
<path d="M 310.50 226.06 C 311.29 224.75 312.08 223.45 312.88 222.16 C 313.02 222.93 313.30 224.46 313.44 225.23 C 314.03 237.85 311.56 251.14 316.71 263.12 C 317.33 265.11 319.77 266.92 318.40 269.13 C 315.93 274.73 312.15 279.63 308.45 284.46 C 301.64 293.05 292.33 299.06 283.28 305.01 C 277.61 308.62 273.66 314.56 272.55 321.19 C 268.77 316.30 266.76 310.13 262.17 305.84 C 259.68 303.64 257.00 301.66 254.46 299.52 C 255.26 298.24 255.77 296.77 254.63 295.51 C 250.17 288.08 245.61 280.71 240.82 273.50 L 240.47 273.00 C 240.55 266.15 240.26 259.30 239.28 252.52 C 244.22 259.54 249.41 266.41 255.25 272.72 C 260.39 278.08 267.44 282.16 275.04 282.09 C 278.94 281.21 281.46 277.65 283.60 274.53 C 287.03 268.87 289.90 262.90 292.82 256.97 C 297.58 246.05 304.67 236.40 310.50 226.06 Z" fill="#fcdbc7" opacity="1.00" stroke="#fcdbc7" stroke-width="0.25"/>
<path d="M 184.56 230.34 C 185.60 236.35 185.18 242.48 186.26 248.48 C 187.45 255.70 188.00 263.03 189.89 270.12 C 194.39 261.17 196.67 251.26 198.79 241.53 C 198.80 255.34 197.24 269.36 192.32 282.35 C 191.55 284.48 190.29 286.37 188.93 288.16 C 183.36 276.60 181.40 263.68 180.39 251.00 C 179.64 243.85 181.54 236.77 184.56 230.34 Z" fill="#c07a51" opacity="1.00" stroke="#c07a51" stroke-width="0.25"/>
<path d="M 393.05 243.88 C 393.54 246.05 394.18 248.18 394.79 250.31 C 395.65 259.59 396.07 269.54 401.47 277.52 C 403.38 280.42 406.25 282.52 409.30 284.09 C 408.12 284.54 406.94 285.00 405.76 285.46 C 400.62 282.57 396.83 277.65 395.07 272.04 C 391.85 262.95 394.20 253.24 393.05 243.88 Z" fill="#ce8a63" opacity="1.00" stroke="#ce8a63" stroke-width="0.25"/>
<path d="M 394.79 250.31 C 397.73 253.69 400.57 257.15 403.41 260.61 C 408.38 266.63 414.66 271.33 420.29 276.70 C 424.14 280.15 427.61 284.07 431.88 287.05 C 439.89 292.50 447.97 297.87 455.95 303.37 L 454.84 304.09 C 458.03 308.27 461.98 311.86 464.73 316.39 C 469.02 323.07 470.55 331.17 470.42 339.01 C 470.19 346.09 469.31 353.72 464.35 359.20 C 465.89 346.97 461.05 334.70 453.80 325.03 C 446.91 316.85 440.25 308.44 434.76 299.25 C 432.60 295.89 430.81 291.68 426.73 290.27 C 420.95 288.14 414.80 286.99 409.30 284.09 C 406.25 282.52 403.38 280.42 401.47 277.52 C 396.07 269.54 395.65 259.59 394.79 250.31 Z" fill="#2d2621" opacity="1.00" stroke="#2d2621" stroke-width="0.25"/>
<path d="M 319.17 261.10 C 319.74 261.32 320.89 261.76 321.46 261.99 C 321.20 263.30 320.63 264.51 319.68 265.47 C 319.49 264.01 319.32 262.55 319.17 261.10 Z" fill="#c4c3be" opacity="1.00" stroke="#c4c3be" stroke-width="0.25"/>
<path d="M 326.40 262.20 C 328.43 262.09 328.91 264.69 330.04 265.96 C 333.62 273.02 342.36 275.91 345.56 283.07 C 345.87 294.58 341.62 305.87 335.40 315.42 C 333.60 317.82 331.82 320.65 328.97 321.86 C 324.09 322.11 319.68 319.56 315.40 317.55 C 306.54 313.47 299.02 306.94 290.00 303.21 C 298.35 298.87 306.63 293.69 312.41 286.10 C 318.14 278.83 322.90 270.77 326.40 262.20 Z" fill="#fffeff" opacity="1.00" stroke="#fffeff" stroke-width="0.25"/>
<path d="M 220.89 280.84 C 222.92 276.02 226.37 271.94 230.40 268.67 C 230.38 277.58 235.94 285.13 241.03 291.96 C 247.93 301.23 260.09 305.18 265.61 315.65 C 261.81 315.34 258.06 314.59 254.26 314.24 C 254.60 313.28 254.95 312.32 255.30 311.37 C 249.27 314.26 245.13 319.83 240.00 323.99 C 236.06 327.30 231.44 332.20 225.75 330.29 C 221.84 327.90 219.42 323.80 217.01 320.04 C 212.00 311.40 208.16 301.44 208.46 291.37 C 213.10 288.62 218.95 286.35 220.89 280.84 Z" fill="#fffeff" opacity="1.00" stroke="#fffeff" stroke-width="0.25"/>
<path d="M 177.22 272.13 C 179.55 270.04 180.02 273.82 180.39 275.39 C 181.42 282.93 183.43 290.61 182.02 298.24 L 180.93 297.42 C 178.87 292.18 178.91 286.36 176.64 281.18 C 173.16 287.06 170.28 293.47 165.33 298.32 C 161.73 301.78 157.75 304.84 153.78 307.86 C 151.49 309.55 149.12 311.12 146.70 312.60 C 143.12 314.78 139.39 316.70 135.67 318.63 C 135.82 317.46 136.02 316.30 136.18 315.14 C 135.87 314.85 135.26 314.28 134.96 314.00 C 148.72 309.54 161.88 300.85 168.47 287.60 C 171.66 282.60 173.83 276.97 177.22 272.13 Z" fill="#c58458" opacity="1.00" stroke="#c58458" stroke-width="0.25"/>
<path d="M 236.05 275.63 C 237.49 274.76 238.92 273.86 240.35 272.98 C 240.40 273.40 240.51 274.26 240.57 274.69 L 240.82 273.50 C 245.61 280.71 250.17 288.08 254.63 295.51 C 255.77 296.77 255.26 298.24 254.46 299.52 C 246.76 293.04 239.23 285.41 236.05 275.63 Z" fill="#c08f79" opacity="1.00" stroke="#c08f79" stroke-width="0.25"/>
<path d="M 176.64 281.18 C 178.91 286.36 178.87 292.18 180.93 297.42 C 179.54 300.91 176.07 302.71 172.68 303.79 C 167.50 305.47 162.57 307.89 157.32 309.36 C 155.90 310.00 154.90 308.42 153.78 307.86 C 157.75 304.84 161.73 301.78 165.33 298.32 C 170.28 293.47 173.16 287.06 176.64 281.18 Z" fill="#2e2824" opacity="1.00" stroke="#2e2824" stroke-width="0.25"/>
<path d="M 409.30 284.09 C 414.80 286.99 420.95 288.14 426.73 290.27 C 430.81 291.68 432.60 295.89 434.76 299.25 C 440.25 308.44 446.91 316.85 453.80 325.03 C 461.05 334.70 465.89 346.97 464.35 359.20 C 463.81 360.35 463.34 361.53 462.92 362.74 C 462.47 361.40 462.01 360.08 461.54 358.77 C 462.76 355.82 462.19 352.60 461.55 349.59 C 459.63 341.46 455.99 333.74 450.76 327.21 C 443.19 317.73 435.59 308.23 429.06 297.98 C 427.51 295.60 425.75 293.07 422.91 292.16 C 417.13 290.11 411.15 288.47 405.76 285.46 C 406.94 285.00 408.12 284.54 409.30 284.09 Z" fill="#c47d57" opacity="1.00" stroke="#c47d57" stroke-width="0.25"/>
<path d="M 349.47 290.11 C 355.12 292.22 360.76 294.38 366.46 296.37 C 375.27 299.45 383.92 303.21 393.18 304.78 C 390.30 307.16 386.73 308.51 383.72 310.73 C 372.14 318.69 360.18 326.08 348.03 333.13 C 333.78 342.21 319.72 351.61 305.19 360.24 C 294.09 367.05 282.84 373.58 272.02 380.83 C 269.24 378.83 266.89 376.30 264.06 374.37 C 260.08 375.22 256.52 377.31 253.14 379.50 C 244.18 373.76 234.59 369.11 225.61 363.40 C 218.33 359.31 211.15 355.03 203.72 351.22 C 201.44 349.99 198.55 349.92 196.32 351.28 C 191.93 353.70 188.22 357.63 186.50 362.37 C 185.43 365.56 187.33 368.54 189.09 371.04 C 184.52 376.55 181.93 383.28 180.30 390.17 C 179.62 395.03 173.98 397.83 174.48 403.03 C 174.49 405.65 177.45 406.58 179.33 407.70 C 187.13 411.39 194.98 415.06 203.15 417.87 C 209.55 420.08 215.52 423.34 221.87 425.71 C 222.08 427.57 220.07 428.65 219.14 430.05 C 209.11 443.11 193.91 450.38 180.84 459.88 C 175.54 446.87 169.97 433.71 167.93 419.74 C 167.74 416.40 167.14 413.05 165.63 410.05 C 166.76 403.48 168.13 396.95 168.89 390.33 C 167.91 390.43 166.93 390.53 165.96 390.64 C 163.79 406.74 158.15 422.16 156.11 438.29 C 154.06 443.56 154.01 449.30 152.40 454.68 C 151.80 454.56 150.61 454.31 150.01 454.19 C 136.62 449.38 122.38 447.40 108.19 447.37 C 110.70 438.53 112.91 429.59 116.13 420.97 C 122.57 403.63 127.94 385.93 133.04 368.16 C 138.31 349.94 143.19 331.06 154.37 315.40 C 155.20 314.46 156.26 313.79 157.26 313.06 C 159.61 327.36 161.18 341.81 164.56 355.93 C 164.90 357.77 165.69 359.58 165.50 361.49 C 165.32 361.79 164.98 362.40 164.81 362.70 C 164.23 361.78 163.65 360.86 163.07 359.95 C 162.24 360.73 161.41 361.52 160.58 362.32 C 159.31 360.69 158.56 357.86 156.02 358.07 C 157.91 363.27 160.74 368.05 162.73 373.22 C 164.31 377.05 165.71 380.97 167.65 384.64 C 168.19 386.00 169.94 385.61 171.07 385.99 C 171.80 383.42 172.82 380.80 172.33 378.09 C 171.20 370.85 169.32 363.74 167.53 356.64 C 163.97 341.92 162.78 326.77 160.00 311.90 C 169.36 307.75 179.40 305.48 188.99 301.96 C 194.11 300.28 199.10 298.14 204.38 296.99 C 206.87 311.04 213.06 324.69 223.32 334.76 C 225.37 337.22 229.10 337.08 231.70 335.64 C 239.56 332.05 245.05 325.11 251.03 319.13 C 253.70 321.21 256.45 323.19 259.47 324.75 C 259.55 324.05 259.71 322.65 259.78 321.94 C 262.76 323.23 265.31 320.30 267.91 319.29 C 272.35 323.33 275.02 328.73 278.28 333.68 C 277.19 333.70 276.10 333.74 275.02 333.79 C 272.10 333.23 268.65 335.85 270.07 338.96 C 270.85 343.41 276.44 344.86 280.12 343.27 C 282.48 340.98 282.93 337.12 281.75 334.16 C 280.07 331.16 277.25 328.91 275.98 325.65 C 283.12 322.69 289.00 317.57 295.49 313.50 C 296.61 312.48 297.87 313.47 298.82 314.18 C 303.66 317.78 308.69 321.20 314.15 323.79 C 314.64 324.06 315.63 324.59 316.12 324.86 C 317.15 325.40 318.27 325.63 319.47 325.57 L 319.53 326.68 C 320.26 326.61 321.71 326.46 322.44 326.38 L 322.39 327.74 C 329.15 328.64 335.19 324.04 338.59 318.57 C 343.97 309.88 347.61 300.14 349.47 290.11 Z" fill="#2bb1c5" opacity="1.00" stroke="#2bb1c5" stroke-width="0.25"/>
<path d="M 397.00 308.29 C 404.09 305.20 410.96 301.57 418.36 299.22 C 419.09 300.55 419.62 301.97 419.87 303.48 C 413.22 307.37 406.68 311.48 399.81 314.98 C 398.63 312.86 397.46 310.69 397.00 308.29 Z" fill="#e34e49" opacity="1.00" stroke="#e34e49" stroke-width="0.25"/>
<path d="M 285.94 306.92 C 288.52 305.09 291.29 307.93 292.75 309.94 C 290.06 313.97 285.61 316.09 281.72 318.73 C 279.64 320.13 277.46 321.42 275.02 322.11 C 275.84 315.64 280.38 310.07 285.94 306.92 Z" fill="#c4c3be" opacity="1.00" stroke="#c4c3be" stroke-width="0.25"/>
<path d="M 368.56 324.48 C 377.12 319.20 385.37 313.44 393.81 307.97 C 395.11 310.52 396.40 313.07 397.55 315.69 C 383.88 324.41 370.06 332.90 355.76 340.54 C 354.44 338.53 353.16 336.48 352.02 334.36 C 357.46 330.94 363.04 327.76 368.56 324.48 Z" fill="#efc086" opacity="1.00" stroke="#efc086" stroke-width="0.25"/>
<path d="M 403.64 317.21 C 409.52 313.77 415.41 310.35 421.39 307.09 C 423.95 311.72 425.96 316.66 428.84 321.13 C 433.57 328.84 439.94 335.33 445.79 342.17 C 439.78 345.90 433.47 349.17 426.96 351.94 C 421.46 346.71 416.28 341.02 412.55 334.38 C 409.40 328.75 406.70 322.89 403.64 317.21 Z" fill="#d63841" opacity="1.00" stroke="#d63841" stroke-width="0.25"/>
<path d="M 135.67 318.63 C 139.39 316.70 143.12 314.78 146.70 312.60 C 145.06 322.97 140.69 332.62 137.51 342.56 C 132.05 357.25 129.33 372.87 122.80 387.16 C 119.16 384.49 116.36 380.90 113.33 377.59 C 112.74 376.74 111.77 375.96 111.70 374.87 C 111.47 364.04 110.33 352.89 113.52 342.36 C 117.14 331.74 125.98 323.78 135.67 318.63 Z" fill="#2f251f" opacity="1.00" stroke="#2f251f" stroke-width="0.25"/>
<path d="M 113.83 324.86 C 119.52 319.04 127.60 316.88 134.96 314.00 C 135.26 314.28 135.87 314.85 136.18 315.14 C 136.02 316.30 135.82 317.46 135.67 318.63 C 125.98 323.78 117.14 331.74 113.52 342.36 C 110.33 352.89 111.47 364.04 111.70 374.87 C 104.31 367.74 100.82 356.98 102.50 346.86 C 104.05 338.67 107.54 330.53 113.83 324.86 Z" fill="#bc7b50" opacity="1.00" stroke="#bc7b50" stroke-width="0.25"/>
<path d="M 252.88 316.57 C 257.63 315.93 262.30 317.43 267.02 317.74 C 267.25 318.13 267.69 318.91 267.91 319.29 C 265.31 320.30 262.76 323.23 259.78 321.94 C 257.48 320.16 255.22 318.31 252.88 316.57 Z" fill="#06809c" opacity="1.00" stroke="#06809c" stroke-width="0.25"/>
<path d="M 378.79 332.25 C 385.61 327.32 393.14 323.47 400.35 319.14 C 404.89 326.27 407.90 334.28 412.71 341.26 C 415.97 345.94 420.30 349.69 424.28 353.73 C 416.69 358.43 408.89 362.78 400.98 366.90 C 394.61 360.17 387.77 353.55 383.78 345.05 C 381.82 340.92 379.79 336.72 378.79 332.25 Z" fill="#e8b57d" opacity="1.00" stroke="#e8b57d" stroke-width="0.25"/>
<path d="M 275.02 333.79 C 276.10 333.74 277.19 333.70 278.28 333.68 C 278.53 335.42 279.25 337.40 278.03 338.96 C 276.88 340.44 274.96 339.66 273.44 339.51 C 273.07 337.40 273.60 335.41 275.02 333.79 Z" fill="#57c9e2" opacity="1.00" stroke="#57c9e2" stroke-width="0.25"/>
<path d="M 356.82 343.95 C 363.25 341.22 369.45 337.95 375.38 334.26 C 377.15 339.90 379.68 345.25 382.03 350.66 C 376.40 354.47 370.66 358.09 364.80 361.53 C 361.85 355.80 359.59 349.76 356.82 343.95 Z" fill="#8ba940" opacity="1.00" stroke="#8ba940" stroke-width="0.25"/>
<path d="M 338.12 343.35 C 341.71 341.15 344.99 338.44 348.81 336.63 C 350.46 338.99 351.97 341.48 352.98 344.20 C 356.03 352.07 359.86 359.59 363.16 367.35 C 356.61 372.55 349.54 377.12 342.06 380.86 C 337.68 371.62 332.97 362.52 328.20 353.46 C 327.90 352.50 326.73 351.49 327.37 350.46 C 330.71 347.74 334.52 345.69 338.12 343.35 Z" fill="#fefefe" opacity="1.00" stroke="#fefefe" stroke-width="0.25"/>
<path d="M 443.68 347.79 C 445.32 346.90 447.13 346.40 449.00 346.17 C 448.86 346.76 448.60 347.95 448.47 348.55 C 444.73 351.94 440.32 354.50 436.12 357.28 C 434.01 356.56 431.91 355.83 429.83 355.08 C 434.27 352.33 439.03 350.17 443.68 347.79 Z" fill="#e3695a" opacity="1.00" stroke="#e3695a" stroke-width="0.25"/>
<path d="M 452.89 352.04 C 453.39 351.74 454.39 351.14 454.89 350.84 C 456.34 353.47 457.65 356.21 458.28 359.17 C 456.17 357.04 454.47 354.57 452.89 352.04 Z" fill="#2b2928" opacity="1.00" stroke="#2b2928" stroke-width="0.25"/>
<path d="M 190.05 362.08 C 192.06 358.39 195.02 354.70 199.03 353.17 C 200.72 353.44 204.04 353.39 203.90 355.79 C 199.34 359.57 194.85 364.77 195.54 371.12 C 191.95 370.03 188.07 366.02 190.05 362.08 Z" fill="#de2634" opacity="1.00" stroke="#de2634" stroke-width="0.25"/>
<path d="M 270.89 355.94 C 272.88 352.54 277.32 354.20 280.34 352.58 C 283.66 354.89 282.77 359.49 282.47 362.95 C 282.15 366.05 279.17 368.63 276.04 367.17 C 270.87 366.52 268.07 360.25 270.89 355.94 Z" fill="#010000" opacity="1.00" stroke="#010000" stroke-width="0.25"/>
<path d="M 428.05 366.78 C 435.63 362.11 443.17 357.39 450.65 352.57 C 452.68 356.18 455.61 359.20 457.47 362.92 C 454.24 373.53 443.24 378.16 434.74 383.83 C 432.50 378.15 430.57 372.34 428.05 366.78 Z" fill="#fefeff" opacity="1.00" stroke="#fefeff" stroke-width="0.25"/>
<path d="M 274.88 382.77 C 290.54 372.36 307.11 363.42 322.94 353.28 C 328.56 362.11 332.52 371.86 337.59 381.01 C 333.03 383.39 328.53 385.89 324.38 388.94 C 322.33 388.39 320.06 387.81 318.11 389.00 C 312.09 392.31 306.40 396.34 299.84 398.57 C 291.61 393.16 283.43 387.67 274.88 382.77 Z" fill="#fffeff" opacity="1.00" stroke="#fffeff" stroke-width="0.25"/>
<path d="M 366.36 364.95 C 372.38 361.20 378.65 357.88 384.56 353.95 C 388.67 359.05 393.55 363.47 398.03 368.24 C 391.85 372.34 385.00 375.35 379.02 379.78 C 374.22 375.36 370.52 369.94 366.36 364.95 Z" fill="#89a13a" opacity="1.00" stroke="#89a13a" stroke-width="0.25"/>
<path d="M 272.78 361.04 C 272.35 358.23 274.36 355.89 275.89 353.78 C 280.05 354.85 280.10 360.16 278.06 363.13 C 276.12 363.81 273.57 363.04 272.78 361.04 Z" fill="#4fbfd2" opacity="1.00" stroke="#4fbfd2" stroke-width="0.25"/>
<path d="M 380.97 381.90 C 397.63 373.72 413.21 363.53 429.70 355.03 L 429.83 355.08 C 431.91 355.83 434.01 356.56 436.12 357.28 C 427.91 362.46 419.54 367.37 411.04 372.06 C 402.41 376.88 394.13 382.43 385.05 386.39 C 383.68 384.90 382.31 383.40 380.97 381.90 Z" fill="#d38e5e" opacity="1.00" stroke="#d38e5e" stroke-width="0.25"/>
<path d="M 198.38 376.06 C 197.78 368.67 200.85 361.07 206.90 356.66 C 214.77 361.55 223.14 365.60 230.79 370.83 C 226.57 373.87 221.36 377.80 222.39 383.75 C 217.28 388.53 213.05 394.91 212.21 401.98 C 211.68 406.95 217.35 408.75 220.09 411.87 C 214.79 410.86 210.12 408.02 205.44 405.49 C 197.99 400.98 189.91 397.46 183.08 391.99 C 185.79 385.25 186.34 376.96 192.82 372.48 C 194.59 373.79 196.42 375.03 198.38 376.06 Z" fill="#e9b37d" opacity="1.00" stroke="#e9b37d" stroke-width="0.25"/>
<path d="M 456.97 369.96 C 458.84 366.38 460.02 362.50 461.54 358.77 C 462.01 360.08 462.47 361.40 462.92 362.74 C 461.91 365.91 460.29 368.82 458.66 371.71 C 457.41 374.02 455.86 376.55 456.64 379.29 C 457.94 385.24 458.01 391.38 457.41 397.44 C 454.35 391.30 453.15 384.41 451.06 377.91 C 452.83 375.11 455.46 372.93 456.97 369.96 Z" fill="#2e241c" opacity="1.00" stroke="#2e241c" stroke-width="0.25"/>
<path d="M 160.58 362.32 C 161.41 361.52 162.24 360.73 163.07 359.95 C 163.65 360.86 164.23 361.78 164.81 362.70 C 164.98 362.40 165.32 361.79 165.50 361.49 L 165.81 360.93 C 167.44 367.92 169.30 374.92 169.91 382.09 C 167.44 375.21 164.43 368.54 160.58 362.32 Z" fill="#37aabb" opacity="1.00" stroke="#37aabb" stroke-width="0.25"/>
<path d="M 342.06 380.86 C 349.54 377.12 356.61 372.55 363.16 367.35 C 368.95 375.00 374.78 382.66 382.02 389.02 C 374.11 393.57 366.28 398.31 358.14 402.45 C 352.07 395.83 346.24 388.86 342.06 380.86 Z" fill="#c5c7c6" opacity="1.00" stroke="#c5c7c6" stroke-width="0.25"/>
<path d="M 334.83 420.78 C 364.87 403.12 395.14 385.86 425.29 368.39 C 431.86 387.00 438.66 405.57 446.94 423.50 C 427.19 435.30 406.94 446.23 387.04 457.77 C 380.07 453.09 372.63 449.19 365.51 444.75 C 354.48 438.00 343.65 430.89 332.37 424.57 C 331.34 422.69 333.62 421.70 334.83 420.78 Z" fill="#fefefe" opacity="1.00" stroke="#fefefe" stroke-width="0.25"/>
<path d="M 231.70 372.68 C 232.71 371.86 233.97 372.68 234.96 373.08 C 240.68 375.98 246.18 379.30 251.82 382.34 C 248.46 386.45 246.77 391.58 246.02 396.77 C 239.39 393.27 232.47 390.14 226.40 385.73 C 223.99 384.38 223.64 381.44 224.43 379.03 C 226.11 376.21 228.94 374.33 231.70 372.68 Z" fill="#d7383e" opacity="1.00" stroke="#d7383e" stroke-width="0.25"/>
<path d="M 255.00 385.19 C 256.45 381.90 258.76 378.95 262.01 377.29 C 264.48 377.90 265.61 380.87 267.70 382.29 C 276.77 389.28 287.43 393.92 296.40 401.07 C 293.34 403.03 290.16 404.79 286.91 406.40 C 276.31 399.26 266.03 391.66 255.00 385.19 Z" fill="#fefefe" opacity="1.00" stroke="#fefefe" stroke-width="0.25"/>
<path d="M 436.02 386.62 C 440.05 384.74 443.79 382.31 447.45 379.80 C 450.87 391.65 455.26 403.38 456.79 415.67 C 454.43 417.49 452.39 419.68 450.21 421.71 C 445.25 410.11 440.43 398.43 436.02 386.62 Z" fill="#27b2c6" opacity="1.00" stroke="#27b2c6" stroke-width="0.25"/>
<path d="M 337.59 381.01 C 342.56 389.53 348.25 397.66 355.22 404.68 C 349.14 408.57 342.69 411.81 336.44 415.40 C 333.20 417.08 329.81 419.79 325.95 418.42 C 325.73 417.97 325.29 417.06 325.06 416.61 C 323.94 415.27 322.65 414.09 321.29 413.00 C 320.74 412.58 319.63 411.75 319.08 411.33 C 323.35 407.31 330.72 406.10 332.73 400.07 C 332.19 395.26 327.44 392.29 324.38 388.94 C 328.53 385.89 333.03 383.39 337.59 381.01 Z" fill="#c5c5c3" opacity="1.00" stroke="#c5c5c3" stroke-width="0.25"/>
<path d="M 222.36 388.28 C 224.26 388.33 225.78 389.75 227.40 390.61 C 233.16 394.33 239.47 397.09 245.23 400.81 C 247.46 401.91 246.59 404.74 246.84 406.73 C 242.62 409.65 238.20 412.29 234.04 415.31 C 228.01 411.53 221.15 409.00 215.77 404.24 C 213.70 402.77 214.99 400.01 215.46 398.05 C 216.87 394.33 218.95 390.49 222.36 388.28 Z" fill="#d4343d" opacity="1.00" stroke="#d4343d" stroke-width="0.25"/>
<path d="M 249.77 405.63 C 248.96 399.65 249.65 393.41 252.73 388.14 C 257.73 390.70 262.55 393.63 267.16 396.85 C 261.63 400.25 255.94 403.54 249.77 405.63 Z" fill="#f4c25d" opacity="1.00" stroke="#f4c25d" stroke-width="0.25"/>
<path d="M 165.96 390.64 C 166.93 390.53 167.91 390.43 168.89 390.33 C 168.13 396.95 166.76 403.48 165.63 410.05 C 163.92 414.96 162.46 419.96 161.17 425.01 C 159.80 430.38 157.63 435.52 156.48 440.96 C 156.39 440.29 156.20 438.96 156.11 438.29 C 158.15 422.16 163.79 406.74 165.96 390.64 Z" fill="#020000" opacity="1.00" stroke="#020000" stroke-width="0.25"/>
<path d="M 307.20 399.12 C 311.84 396.49 316.24 393.42 321.10 391.19 C 324.13 393.59 327.73 396.13 329.00 399.92 C 328.14 402.22 325.57 403.29 323.75 404.76 C 317.49 409.31 310.75 413.09 304.24 417.24 C 299.65 419.95 294.23 420.67 288.99 420.64 C 283.83 420.60 278.64 421.04 273.50 420.45 C 273.44 420.13 273.30 419.49 273.24 419.17 C 284.15 411.81 295.75 405.58 307.20 399.12 Z" fill="#dc3942" opacity="1.00" stroke="#dc3942" stroke-width="0.25"/>
<path d="M 177.25 402.65 C 176.84 399.71 179.23 397.42 180.87 395.28 C 192.73 401.97 204.10 409.95 217.19 414.11 C 215.36 415.06 213.62 416.19 211.91 417.34 C 203.04 413.73 194.01 410.54 185.20 406.79 C 182.54 405.52 179.15 405.04 177.25 402.65 Z" fill="#e4a56c" opacity="1.00" stroke="#e4a56c" stroke-width="0.25"/>
<path d="M 259.97 404.86 C 263.10 403.38 265.99 401.41 269.21 400.10 C 274.40 401.93 278.48 405.97 282.94 409.09 C 278.60 411.90 273.93 414.12 269.36 416.49 C 264.20 419.21 258.02 419.04 252.98 422.06 C 259.86 423.79 266.99 422.80 273.97 423.57 C 292.73 424.49 311.68 423.42 330.02 419.26 C 329.52 423.16 328.51 427.58 324.86 429.76 C 316.42 435.18 306.67 438.14 297.00 440.53 C 293.92 441.36 290.73 441.60 287.56 441.67 C 288.83 442.31 290.10 442.96 291.36 443.63 C 291.48 445.87 292.41 448.33 291.42 450.47 C 288.87 451.98 286.08 453.02 283.48 454.44 C 286.32 456.19 289.43 457.41 292.50 458.71 C 291.15 460.18 290.00 461.92 288.22 462.91 C 285.60 464.53 282.38 465.92 281.06 468.92 C 279.86 471.57 278.72 474.26 277.65 476.97 C 276.96 477.25 275.60 477.82 274.91 478.10 C 265.36 474.37 255.00 473.66 244.90 472.57 C 236.80 472.16 228.27 471.23 220.58 474.39 C 222.82 475.78 225.27 476.78 227.78 477.60 C 215.70 489.25 203.68 501.00 190.98 512.00 L 98.44 512.00 C 103.05 501.45 106.20 490.35 109.61 479.37 C 118.38 480.30 127.18 480.98 135.98 481.45 C 136.29 480.97 136.89 480.01 137.20 479.54 C 138.28 479.93 139.37 480.32 140.46 480.71 C 131.80 483.45 123.37 487.48 116.52 493.52 C 114.15 495.49 112.60 498.20 111.47 501.02 C 120.43 492.06 132.47 487.59 143.99 483.00 C 159.38 475.93 174.53 468.20 188.53 458.62 C 196.09 453.54 203.78 448.63 210.98 443.03 C 219.33 436.36 225.15 427.17 232.97 419.96 C 240.77 413.01 250.75 409.44 259.97 404.86 Z" fill="#fcd9c6" opacity="1.00" stroke="#fcd9c6" stroke-width="0.25"/>
<path d="M 165.63 410.05 C 167.14 413.05 167.74 416.40 167.93 419.74 C 167.55 427.18 168.26 434.70 166.86 442.07 C 165.85 448.11 165.15 454.19 164.09 460.23 C 159.46 458.06 154.61 456.42 150.01 454.19 C 150.61 454.31 151.80 454.56 152.40 454.68 C 154.01 449.30 154.06 443.56 156.11 438.29 C 156.20 438.96 156.39 440.29 156.48 440.96 C 157.63 435.52 159.80 430.38 161.17 425.01 C 162.46 419.96 163.92 414.96 165.63 410.05 Z" fill="#056675" opacity="1.00" stroke="#056675" stroke-width="0.25"/>
<path d="M 217.19 414.11 C 218.37 413.52 219.60 413.01 220.81 412.48 C 224.39 414.13 228.06 415.59 231.66 417.20 C 229.76 419.61 227.57 421.78 225.16 423.69 C 220.80 421.45 216.34 419.42 211.91 417.34 C 213.62 416.19 215.36 415.06 217.19 414.11 Z" fill="#c88e58" opacity="1.00" stroke="#c88e58" stroke-width="0.25"/>
<path d="M 314.24 414.45 C 315.88 412.91 318.94 412.58 320.14 414.89 C 320.77 415.75 321.40 416.62 322.05 417.49 C 320.45 417.96 318.86 418.43 317.27 418.91 C 316.25 417.42 315.24 415.94 314.24 414.45 Z" fill="#979896" opacity="1.00" stroke="#979896" stroke-width="0.25"/>
<path d="M 321.29 413.00 C 322.65 414.09 323.94 415.27 325.06 416.61 C 322.82 418.88 319.70 419.30 316.65 419.10 L 317.27 418.91 C 318.86 418.43 320.45 417.96 322.05 417.49 C 321.40 416.62 320.77 415.75 320.14 414.89 C 320.42 414.42 321.00 413.48 321.29 413.00 Z" fill="#424242" opacity="1.00" stroke="#424242" stroke-width="0.25"/>
<path d="M 305.82 420.26 C 307.29 418.90 308.90 417.70 310.54 416.55 C 311.51 417.65 312.37 418.86 312.93 420.24 C 310.56 420.29 308.19 420.30 305.82 420.26 Z" fill="#c4a29c" opacity="1.00" stroke="#c4a29c" stroke-width="0.25"/>
<path d="M 451.15 424.87 C 452.83 422.97 454.64 421.17 456.73 419.72 C 456.74 420.56 456.74 422.23 456.74 423.07 C 457.34 424.37 457.77 425.74 458.10 427.15 C 455.68 426.71 453.36 425.91 451.15 424.87 Z" fill="#0091a7" opacity="1.00" stroke="#0091a7" stroke-width="0.25"/>
<path d="M 329.61 428.69 C 329.95 428.53 330.65 428.22 331.00 428.07 C 335.17 430.00 338.77 432.97 342.79 435.20 C 354.70 442.21 365.95 450.29 378.12 456.87 C 386.52 461.53 394.69 466.67 403.54 470.46 C 412.58 474.86 422.42 477.28 431.48 481.63 C 435.85 483.71 439.92 486.36 444.14 488.73 C 437.89 480.26 427.78 475.95 418.19 472.44 C 417.18 469.51 415.89 466.69 414.44 463.96 C 416.42 462.79 418.32 461.50 420.30 460.34 C 430.20 455.16 442.06 454.49 452.89 456.62 C 454.21 456.63 454.34 458.18 454.84 459.07 C 455.71 466.08 456.83 473.07 458.25 480.00 C 460.48 490.73 462.07 501.67 465.90 512.00 L 394.29 512.00 C 386.41 506.53 379.77 499.50 372.05 493.82 C 356.91 482.46 342.95 469.68 328.18 457.86 L 331.07 458.38 C 327.97 454.49 324.03 451.41 320.83 447.61 C 324.55 446.00 329.46 445.49 331.75 441.77 C 332.76 437.36 331.51 432.70 329.61 428.69 Z" fill="#fbd9c6" opacity="1.00" stroke="#fbd9c6" stroke-width="0.25"/>
<path d="M 329.61 428.69 C 331.51 432.70 332.76 437.36 331.75 441.77 C 329.46 445.49 324.55 446.00 320.83 447.61 C 324.03 451.41 327.97 454.49 331.07 458.38 L 328.18 457.86 C 324.29 454.96 320.51 451.88 317.21 448.30 C 311.25 450.65 305.43 453.33 299.39 455.47 C 296.99 456.31 294.56 457.18 292.50 458.71 C 289.43 457.41 286.32 456.19 283.48 454.44 C 286.08 453.02 288.87 451.98 291.42 450.47 C 292.41 448.33 291.48 445.87 291.36 443.63 C 298.99 443.34 306.26 440.74 313.37 438.19 C 319.18 435.82 325.31 433.47 329.61 428.69 Z" fill="#c8947c" opacity="1.00" stroke="#c8947c" stroke-width="0.25"/>
<path d="M 442.46 430.35 C 447.29 426.42 453.30 429.87 458.64 430.63 C 459.80 438.56 462.09 446.24 463.71 454.08 C 457.58 450.20 450.16 448.86 443.04 448.24 C 430.46 447.27 418.51 452.66 407.77 458.60 C 406.78 456.68 405.83 454.74 405.03 452.75 C 417.38 445.07 430.29 438.33 442.46 430.35 Z" fill="#feffff" opacity="1.00" stroke="#feffff" stroke-width="0.25"/>
<path d="M 171.43 447.25 C 173.27 452.32 175.50 457.24 177.52 462.24 C 175.27 463.68 172.91 464.93 170.42 465.90 C 170.07 465.39 169.36 464.39 169.01 463.88 C 169.56 458.30 170.69 452.80 171.43 447.25 Z" fill="#a7a9a0" opacity="1.00" stroke="#a7a9a0" stroke-width="0.25"/>
<path d="M 299.39 455.47 C 305.43 453.33 311.25 450.65 317.21 448.30 C 320.51 451.88 324.29 454.96 328.18 457.86 C 342.95 469.68 356.91 482.46 372.05 493.82 C 379.77 499.50 386.41 506.53 394.29 512.00 L 386.55 512.00 C 381.39 507.61 376.44 502.96 371.34 498.50 C 370.71 502.97 370.42 507.48 370.23 512.00 L 363.71 512.00 C 364.29 506.44 365.52 500.96 365.96 495.38 C 354.92 485.62 344.04 475.69 332.70 466.27 C 328.49 462.45 324.32 458.58 319.73 455.23 C 319.07 461.03 314.30 464.76 310.04 468.10 C 304.85 472.17 298.78 474.83 293.03 477.99 C 287.93 480.79 283.79 485.14 278.42 487.47 C 273.59 489.14 269.18 485.81 264.86 484.22 C 255.99 480.54 246.22 480.81 236.94 478.93 C 233.63 478.02 230.58 480.09 228.15 482.11 C 217.16 491.81 207.00 502.41 195.91 512.00 L 190.98 512.00 C 203.68 501.00 215.70 489.25 227.78 477.60 C 234.44 475.16 241.62 477.47 248.45 477.86 C 256.49 478.40 264.41 480.25 271.58 484.01 C 276.15 485.94 280.51 482.50 284.29 480.32 C 294.76 473.16 307.19 468.42 315.49 458.48 C 317.48 456.34 316.29 453.40 315.32 451.11 C 310.98 452.72 306.90 454.92 302.66 456.75 C 299.79 458.02 296.58 458.38 293.81 459.88 C 291.62 461.66 290.24 464.18 288.57 466.41 C 288.48 465.54 288.31 463.79 288.22 462.91 C 290.00 461.92 291.15 460.18 292.50 458.71 C 294.56 457.18 296.99 456.31 299.39 455.47 Z" fill="#000000" opacity="1.00" stroke="#000000" stroke-width="0.25"/>
<path d="M 429.95 452.19 C 438.20 449.81 447.02 451.17 454.94 454.12 C 454.87 455.76 454.81 457.41 454.84 459.07 C 454.34 458.18 454.21 456.63 452.89 456.62 C 442.06 454.49 430.20 455.16 420.30 460.34 C 419.04 460.12 417.79 459.90 416.55 459.70 C 416.61 459.11 416.73 457.93 416.79 457.34 C 421.04 455.29 425.40 453.42 429.95 452.19 Z" fill="#b17e67" opacity="1.00" stroke="#b17e67" stroke-width="0.25"/>
<path d="M 106.92 451.55 C 122.80 450.96 138.98 453.24 153.61 459.62 C 158.01 461.62 163.26 463.30 165.44 468.03 C 161.39 471.41 156.36 473.23 151.78 475.76 C 149.24 476.90 146.83 478.66 144.00 478.91 C 140.68 477.74 137.51 476.16 134.10 475.22 C 123.99 472.17 113.32 472.73 102.90 472.07 C 101.01 471.00 102.02 468.58 102.15 466.89 C 103.26 461.65 104.66 456.42 106.92 451.55 Z" fill="#fefefe" opacity="1.00" stroke="#fefefe" stroke-width="0.25"/>
<path d="M 302.66 456.75 C 306.90 454.92 310.98 452.72 315.32 451.11 C 316.29 453.40 317.48 456.34 315.49 458.48 C 307.19 468.42 294.76 473.16 284.29 480.32 C 280.51 482.50 276.15 485.94 271.58 484.01 C 273.14 483.38 274.74 482.82 276.22 482.01 C 276.96 480.41 277.15 478.64 277.65 476.97 C 278.72 474.26 279.86 471.57 281.06 468.92 C 282.38 465.92 285.60 464.53 288.22 462.91 C 288.31 463.79 288.48 465.54 288.57 466.41 C 290.24 464.18 291.62 461.66 293.81 459.88 C 296.58 458.38 299.79 458.02 302.66 456.75 Z" fill="#c99881" opacity="1.00" stroke="#c99881" stroke-width="0.25"/>
<path d="M 319.73 455.23 C 324.32 458.58 328.49 462.45 332.70 466.27 C 344.04 475.69 354.92 485.62 365.96 495.38 C 365.52 500.96 364.29 506.44 363.71 512.00 L 347.41 512.00 C 341.65 506.19 334.10 502.82 326.98 499.04 C 317.99 494.59 309.32 489.53 300.26 485.23 C 296.25 491.44 290.31 496.15 284.21 500.17 C 274.79 505.18 264.22 499.26 254.39 500.38 C 247.49 503.54 241.33 508.09 234.84 512.00 L 195.91 512.00 C 207.00 502.41 217.16 491.81 228.15 482.11 C 230.58 480.09 233.63 478.02 236.94 478.93 C 246.22 480.81 255.99 480.54 264.86 484.22 C 269.18 485.81 273.59 489.14 278.42 487.47 C 283.79 485.14 287.93 480.79 293.03 477.99 C 298.78 474.83 304.85 472.17 310.04 468.10 C 314.30 464.76 319.07 461.03 319.73 455.23 Z" fill="#086576" opacity="1.00" stroke="#086576" stroke-width="0.25"/>
<path d="M 391.72 459.57 C 394.85 458.00 397.99 456.44 401.09 454.81 C 403.58 458.86 404.20 463.69 406.46 467.85 C 401.64 464.92 396.44 462.65 391.72 459.57 Z" fill="#a9a3a1" opacity="1.00" stroke="#a9a3a1" stroke-width="0.25"/>
<path d="M 458.49 455.09 C 459.08 455.65 459.68 456.22 460.28 456.80 C 459.90 459.04 459.55 461.31 458.69 463.44 C 458.29 460.69 457.51 457.80 458.49 455.09 Z" fill="#fefeff" opacity="1.00" stroke="#fefeff" stroke-width="0.25"/>
<path d="M 409.43 461.48 C 411.68 459.77 414.30 458.64 416.79 457.34 C 416.73 457.93 416.61 459.11 416.55 459.70 C 417.79 459.90 419.04 460.12 420.30 460.34 C 418.32 461.50 416.42 462.79 414.44 463.96 C 413.03 464.76 411.58 465.50 410.13 466.25 C 409.89 464.68 409.01 463.05 409.43 461.48 Z" fill="#c7937e" opacity="1.00" stroke="#c7937e" stroke-width="0.25"/>
<path d="M 410.13 466.25 C 411.58 465.50 413.03 464.76 414.44 463.96 C 415.89 466.69 417.18 469.51 418.19 472.44 C 415.87 471.54 413.41 470.92 411.22 469.72 C 410.72 468.61 410.47 467.40 410.13 466.25 Z" fill="#e9bba4" opacity="1.00" stroke="#e9bba4" stroke-width="0.25"/>
<path d="M 220.58 474.39 C 228.27 471.23 236.80 472.16 244.90 472.57 C 255.00 473.66 265.36 474.37 274.91 478.10 C 275.60 477.82 276.96 477.25 277.65 476.97 C 277.15 478.64 276.96 480.41 276.22 482.01 C 274.74 482.82 273.14 483.38 271.58 484.01 C 264.41 480.25 256.49 478.40 248.45 477.86 C 241.62 477.47 234.44 475.16 227.78 477.60 C 225.27 476.78 222.82 475.78 220.58 474.39 Z" fill="#c3907b" opacity="1.00" stroke="#c3907b" stroke-width="0.25"/>
<path d="M 110.67 475.16 C 119.61 475.75 128.77 476.20 137.20 479.54 C 136.89 480.01 136.29 480.97 135.98 481.45 C 127.18 480.98 118.38 480.30 109.61 479.37 C 109.98 477.97 110.33 476.56 110.67 475.16 Z" fill="#ce977b" opacity="1.00" stroke="#ce977b" stroke-width="0.25"/>
<path d="M 284.21 500.17 C 290.31 496.15 296.25 491.44 300.26 485.23 C 309.32 489.53 317.99 494.59 326.98 499.04 C 334.10 502.82 341.65 506.19 347.41 512.00 L 234.84 512.00 C 241.33 508.09 247.49 503.54 254.39 500.38 C 264.22 499.26 274.79 505.18 284.21 500.17 Z" fill="#2cb1c6" opacity="1.00" stroke="#2cb1c6" stroke-width="0.25"/>
<path d="M 371.34 498.50 C 376.44 502.96 381.39 507.61 386.55 512.00 L 370.23 512.00 C 370.42 507.48 370.71 502.97 371.34 498.50 Z" fill="#ada696" opacity="1.00" stroke="#ada696" stroke-width="0.25"/>
<path d="M 501.30 500.30 C 502.24 498.82 504.87 500.33 503.68 501.84 C 502.73 503.34 500.08 501.80 501.30 500.30 Z" fill="#c6a66b" opacity="1.00" stroke="#c6a66b" stroke-width="0.25"/>
<path d="M 498.88 504.85 C 500.15 504.67 501.71 502.63 502.84 504.07 C 503.17 504.47 503.82 505.29 504.15 505.70 C 500.63 506.14 497.01 505.77 493.79 504.23 C 495.50 504.25 497.20 504.52 498.88 504.85 Z" fill="#fcdbc7" opacity="1.00" stroke="#fcdbc7" stroke-width="0.25"/>
</svg>