<svg width="56" height="56" viewBox="0 0 56 56" fill="none" xmlns="http://www.w3.org/2000/svg">
<g clip-path="url(#clip0_65_728)">
<path d="M28 0C24.1884 0 21.0875 3.101 21.0875 6.9125C21.0875 10.724 24.1885 13.825 28 13.825C31.8115 13.825 34.9125 10.7241 34.9125 6.9125C34.9125 3.10089 31.8116 0 28 0ZM28 10.5437C25.9977 10.5437 24.3687 8.91483 24.3687 6.9125C24.3687 4.91017 25.9977 3.28125 28 3.28125C30.0023 3.28125 31.6312 4.91028 31.6312 6.9125C31.6312 8.91472 30.0023 10.5437 28 10.5437ZM28 21.0875C24.1884 21.0875 21.0875 24.1885 21.0875 28C21.0875 31.8115 24.1885 34.9125 28 34.9125C31.8115 34.9125 34.9125 31.8115 34.9125 28C34.9125 24.1885 31.8116 21.0875 28 21.0875ZM28 31.6312C25.9977 31.6312 24.3687 30.0022 24.3687 28C24.3687 25.9978 25.9978 24.3687 28 24.3687C30.0022 24.3687 31.6312 25.9978 31.6312 28C31.6312 30.0022 30.0023 31.6312 28 31.6312ZM28 42.175C24.1884 42.175 21.0875 45.2759 21.0875 49.0875C21.0875 52.8991 24.1884 56 28 56C31.8116 56 34.9125 52.899 34.9125 49.0875C34.9125 45.276 31.8116 42.175 28 42.175ZM28 52.7187C25.9977 52.7187 24.3687 51.0897 24.3687 49.0875C24.3687 47.0853 25.9978 45.4562 28 45.4562C30.0022 45.4562 31.6312 47.0852 31.6312 49.0875C31.6312 51.0898 30.0023 52.7187 28 52.7187ZM6.9125 0C3.101 0 0 3.101 0 6.9125C0 10.724 3.101 13.825 6.9125 13.825C10.724 13.825 13.825 10.7241 13.825 6.9125C13.825 3.10089 10.7241 0 6.9125 0ZM6.9125 10.5437C4.91028 10.5437 3.28125 8.91483 3.28125 6.9125C3.28125 4.91017 4.91028 3.28125 6.9125 3.28125C8.91472 3.28125 10.5437 4.91028 10.5437 6.9125C10.5437 8.91472 8.91483 10.5437 6.9125 10.5437ZM6.9125 21.0875C3.101 21.0875 0 24.1884 0 28C0 31.8116 3.101 34.9125 6.9125 34.9125C10.724 34.9125 13.825 31.8115 13.825 28C13.825 24.1885 10.7241 21.0875 6.9125 21.0875ZM6.9125 31.6312C4.91028 31.6312 3.28125 30.0023 3.28125 28C3.28125 25.9977 4.91028 24.3687 6.9125 24.3687C8.91472 24.3687 10.5437 25.9978 10.5437 28C10.5437 30.0022 8.91483 31.6312 6.9125 31.6312ZM6.9125 42.175C3.101 42.175 0 45.2759 0 49.0875C0 52.8991 3.101 56 6.9125 56C10.724 56 13.825 52.899 13.825 49.0875C13.825 45.276 10.7241 42.175 6.9125 42.175ZM6.9125 52.7187C4.91028 52.7187 3.28125 51.0897 3.28125 49.0875C3.28125 47.0853 4.91028 45.4562 6.9125 45.4562C8.91472 45.4562 10.5437 47.0852 10.5437 49.0875C10.5437 51.0898 8.91483 52.7187 6.9125 52.7187ZM49.0875 0C45.276 0 42.175 3.101 42.175 6.9125C42.175 10.724 45.2759 13.825 49.0875 13.825C52.8991 13.825 56 10.7241 56 6.9125C56 3.10089 52.899 0 49.0875 0ZM49.0875 10.5437C47.0853 10.5437 45.4562 8.91483 45.4562 6.9125C45.4562 4.91017 47.0852 3.28125 49.0875 3.28125C51.0898 3.28125 52.7187 4.91028 52.7187 6.9125C52.7187 8.91472 51.0897 10.5437 49.0875 10.5437ZM49.0875 21.0875C45.2759 21.0875 42.175 24.1885 42.175 28C42.175 31.8115 45.276 34.9125 49.0875 34.9125C52.899 34.9125 56 31.8116 56 28C56 24.1884 52.899 21.0875 49.0875 21.0875ZM49.0875 31.6312C47.0852 31.6312 45.4562 30.0022 45.4562 28C45.4562 25.9978 47.0853 24.3687 49.0875 24.3687C51.0897 24.3687 52.7187 25.9977 52.7187 28C52.7187 30.0023 51.0897 31.6312 49.0875 31.6312ZM49.0875 42.175C45.2759 42.175 42.175 45.2759 42.175 49.0875C42.175 52.8991 45.276 56 49.0875 56C52.899 56 56 52.899 56 49.0875C56 45.276 52.899 42.175 49.0875 42.175ZM49.0875 52.7187C47.0852 52.7187 45.4562 51.0897 45.4562 49.0875C45.4562 47.0853 47.0853 45.4562 49.0875 45.4562C51.0897 45.4562 52.7187 47.0852 52.7187 49.0875C52.7187 51.0898 51.0897 52.7187 49.0875 52.7187Z" fill="white" fill-opacity="0.16"/>
</g>
<defs>
<clipPath id="clip0_65_728">
<rect width="56" height="56" fill="white"/>
</clipPath>
</defs>
</svg>
