<svg width="77" height="77" viewBox="0 0 77 77" fill="none" xmlns="http://www.w3.org/2000/svg">
<g clip-path="url(#clip0_12_66)">
<path d="M38.5 0C33.259 0 28.9953 4.26388 28.9953 9.50469C28.9953 14.7455 33.2592 19.0094 38.5 19.0094C43.7408 19.0094 48.0047 14.7457 48.0047 9.50469C48.0047 4.26372 43.741 0 38.5 0ZM38.5 14.4977C35.7468 14.4977 33.507 12.2579 33.507 9.50469C33.507 6.75149 35.7468 4.51172 38.5 4.51172C41.2532 4.51172 43.493 6.75164 43.493 9.50469C43.493 12.2577 41.2532 14.4977 38.5 14.4977ZM38.5 28.9953C33.259 28.9953 28.9953 33.2592 28.9953 38.5C28.9953 43.7408 33.2592 48.0047 38.5 48.0047C43.7408 48.0047 48.0047 43.7408 48.0047 38.5C48.0047 33.2592 43.741 28.9953 38.5 28.9953ZM38.5 43.493C35.7468 43.493 33.507 41.2531 33.507 38.5C33.507 35.7469 35.7469 33.507 38.5 33.507C41.2531 33.507 43.493 35.7469 43.493 38.5C43.493 41.2531 41.2532 43.493 38.5 43.493ZM38.5 57.9906C33.259 57.9906 28.9953 62.2543 28.9953 67.4953C28.9953 72.7363 33.259 77 38.5 77C43.741 77 48.0047 72.7361 48.0047 67.4953C48.0047 62.2545 43.741 57.9906 38.5 57.9906ZM38.5 72.4883C35.7468 72.4883 33.507 70.2484 33.507 67.4953C33.507 64.7423 35.7469 62.5023 38.5 62.5023C41.2531 62.5023 43.493 64.7421 43.493 67.4953C43.493 70.2485 41.2532 72.4883 38.5 72.4883ZM9.50469 0C4.26388 0 0 4.26388 0 9.50469C0 14.7455 4.26388 19.0094 9.50469 19.0094C14.7455 19.0094 19.0094 14.7457 19.0094 9.50469C19.0094 4.26372 14.7457 0 9.50469 0ZM9.50469 14.4977C6.75164 14.4977 4.51172 12.2579 4.51172 9.50469C4.51172 6.75149 6.75164 4.51172 9.50469 4.51172C12.2577 4.51172 14.4977 6.75164 14.4977 9.50469C14.4977 12.2577 12.2579 14.4977 9.50469 14.4977ZM9.50469 28.9953C4.26388 28.9953 0 33.259 0 38.5C0 43.741 4.26388 48.0047 9.50469 48.0047C14.7455 48.0047 19.0094 43.7408 19.0094 38.5C19.0094 33.2592 14.7457 28.9953 9.50469 28.9953ZM9.50469 43.493C6.75164 43.493 4.51172 41.2532 4.51172 38.5C4.51172 35.7468 6.75164 33.507 9.50469 33.507C12.2577 33.507 14.4977 35.7469 14.4977 38.5C14.4977 41.2531 12.2579 43.493 9.50469 43.493ZM9.50469 57.9906C4.26388 57.9906 0 62.2543 0 67.4953C0 72.7363 4.26388 77 9.50469 77C14.7455 77 19.0094 72.7361 19.0094 67.4953C19.0094 62.2545 14.7457 57.9906 9.50469 57.9906ZM9.50469 72.4883C6.75164 72.4883 4.51172 70.2484 4.51172 67.4953C4.51172 64.7423 6.75164 62.5023 9.50469 62.5023C12.2577 62.5023 14.4977 64.7421 14.4977 67.4953C14.4977 70.2485 12.2579 72.4883 9.50469 72.4883ZM67.4953 0C62.2545 0 57.9906 4.26388 57.9906 9.50469C57.9906 14.7455 62.2543 19.0094 67.4953 19.0094C72.7363 19.0094 77 14.7457 77 9.50469C77 4.26372 72.7361 0 67.4953 0ZM67.4953 14.4977C64.7423 14.4977 62.5023 12.2579 62.5023 9.50469C62.5023 6.75149 64.7421 4.51172 67.4953 4.51172C70.2485 4.51172 72.4883 6.75164 72.4883 9.50469C72.4883 12.2577 70.2484 14.4977 67.4953 14.4977ZM67.4953 28.9953C62.2543 28.9953 57.9906 33.2592 57.9906 38.5C57.9906 43.7408 62.2545 48.0047 67.4953 48.0047C72.7361 48.0047 77 43.741 77 38.5C77 33.259 72.7361 28.9953 67.4953 28.9953ZM67.4953 43.493C64.7421 43.493 62.5023 41.2531 62.5023 38.5C62.5023 35.7469 64.7423 33.507 67.4953 33.507C70.2484 33.507 72.4883 35.7468 72.4883 38.5C72.4883 41.2532 70.2484 43.493 67.4953 43.493ZM67.4953 57.9906C62.2543 57.9906 57.9906 62.2543 57.9906 67.4953C57.9906 72.7363 62.2545 77 67.4953 77C72.7361 77 77 72.7361 77 67.4953C77 62.2545 72.7361 57.9906 67.4953 57.9906ZM67.4953 72.4883C64.7421 72.4883 62.5023 70.2484 62.5023 67.4953C62.5023 64.7423 64.7423 62.5023 67.4953 62.5023C70.2484 62.5023 72.4883 64.7421 72.4883 67.4953C72.4883 70.2485 70.2484 72.4883 67.4953 72.4883Z" fill="#343A40"/>
</g>
<defs>
<clipPath id="clip0_12_66">
<rect width="77" height="77" fill="white"/>
</clipPath>
</defs>
</svg>
